{
  "source": "C:\\Users\\Peter\\Desktop\\stuff\\MIUN\\quantitative_research\\video_compression\\videos\\UVG\\ReadySteadyGo_1920x1080_120fps_420_8bit_YUV.y4m",
  "output": "C:\\Users\\Peter\\Desktop\\stuff\\MIUN\\quantitative_research\\video_compression\\compressed_videos\\UVG\\vp9\\2\\ReadySteadyGo_1920x1080_120fps_420_8bit_YUV_vp9.webm",
  "codec": "vp9",
  "ok": "[yuv4mpegpipe @ 0000022b73bb53c0] Stream #0: not enough frames to estimate rate; consider increasing probesize\nInput #0, yuv4mpegpipe, from 'C:\\Users\\Peter\\Desktop\\stuff\\MIUN\\quantitative_research\\video_compression\\videos\\UVG\\ReadySteadyGo_1920x1080_120fps_420_8bit_YUV.y4m':\n  Duration: 00:00:05.00, start: 0.000000, bitrate: 2985989 kb/s\n  Stream #0:0: Video: rawvideo (I420 / 0x30323449), yuv420p(progressive), 1920x1080, 120 fps, 120 tbr, 120 tbn\n[out#0/webm @ 0000022b73bb9080] Codec AVOption b:a (set bitrate (in bits/s)) has not been used for any stream. The most likely reason is either wrong type (e.g. a video option with no video streams) or that it is a private option of some decoder which was not actually used for any stream.\nStream mapping:\n  Stream #0:0 -> #0:0 (rawvideo (native) -> vp9 (libvpx-vp9))\nPress [q] to stop, [?] for help\n[libvpx-vp9 @ 0000022b73bbc100] v1.15.2-100-g40561f514\nOutput #0, webm, to 'C:\\Users\\Peter\\Desktop\\stuff\\MIUN\\quantitative_research\\video_compression\\compressed_videos\\UVG\\vp9\\2\\ReadySteadyGo_1920x1080_120fps_420_8bit_YUV_vp9.webm':\n  Metadata:\n    encoder         : Lavf62.3.100\n  Stream #0:0: Video: vp9, yuv420p(tv, progressive), 1920x1080, q=2-31, 2000 kb/s, 120 fps, 1k tbn\n    Metadata:\n      encoder         : Lavc62.11.100 libvpx-vp9\n    Side data:\n      cpb: bitrate max/min/avg: 0/0/0 buffer size: 2000000 vbv_delay: N/A\nframe=    0 fps=0.0 q=0.0 size=       0KiB time=N/A bitrate=N/A speed=N/A elapsed=0:00:00.51    \nframe=    5 fps=4.9 q=58.0 size=       0KiB time=00:00:00.04 bitrate=  92.4kbits/s speed=0.0405x elapsed=0:00:01.02    \nframe=   10 fps=6.4 q=60.0 size=       0KiB time=00:00:00.08 bitrate=  46.2kbits/s speed=0.0537x elapsed=0:00:01.55    \nframe=   15 fps=7.3 q=60.0 size=       0KiB time=00:00:00.12 bitrate=  30.8kbits/s speed=0.0606x elapsed=0:00:02.06    \nframe=   19 fps=7.4 q=60.0 size=       0KiB time=00:00:00.15 bitrate=  24.3kbits/s speed=0.0615x elapsed=0:00:02.57    \nframe=   23 fps=7.4 q=62.0 size=       0KiB time=00:00:00.19 bitrate=  20.1kbits/s speed=0.0619x elapsed=0:00:03.09    \nframe=   27 fps=7.5 q=62.0 size=       0KiB time=00:00:00.22 bitrate=  17.1kbits/s speed=0.0622x elapsed=0:00:03.61    \nframe=   31 fps=7.5 q=51.0 size=       0KiB time=00:00:00.25 bitrate=  14.9kbits/s speed=0.0626x elapsed=0:00:04.12    \nframe=   35 fps=7.5 q=60.0 size=       0KiB time=00:00:00.29 bitrate=  13.2kbits/s speed=0.0628x elapsed=0:00:04.64    \nframe=   39 fps=7.6 q=60.0 size=       0KiB time=00:00:00.32 bitrate=  11.8kbits/s speed=0.063x elapsed=0:00:05.16    \nframe=   43 fps=7.6 q=60.0 size=       0KiB time=00:00:00.35 bitrate=  10.7kbits/s speed=0.0632x elapsed=0:00:05.66    \nframe=   47 fps=7.6 q=60.0 size=       0KiB time=00:00:00.39 bitrate=   9.8kbits/s speed=0.0632x elapsed=0:00:06.19    \nframe=   51 fps=7.6 q=59.0 size=       0KiB time=00:00:00.42 bitrate=   9.1kbits/s speed=0.0634x elapsed=0:00:06.70    \nframe=   56 fps=7.8 q=59.0 size=       0KiB time=00:00:00.45 bitrate=   8.4kbits/s speed=0.0635x elapsed=0:00:07.22    \nframe=   59 fps=7.6 q=59.0 size=       0KiB time=00:00:00.49 bitrate=   7.8kbits/s speed=0.0636x elapsed=0:00:07.73    \nframe=   64 fps=7.8 q=58.0 size=       0KiB time=00:00:00.53 bitrate=   7.2kbits/s speed=0.0647x elapsed=0:00:08.24    \nframe=   68 fps=7.8 q=59.0 size=       0KiB time=00:00:00.56 bitrate=   6.8kbits/s speed=0.0647x elapsed=0:00:08.76    \nframe=   72 fps=7.8 q=59.0 size=       0KiB time=00:00:00.60 bitrate=   6.4kbits/s speed=0.0646x elapsed=0:00:09.28    \nframe=   76 fps=7.8 q=60.0 size=       0KiB time=00:00:00.63 bitrate=   6.1kbits/s speed=0.0646x elapsed=0:00:09.79    \nframe=   80 fps=7.8 q=61.0 size=       0KiB time=00:00:00.66 bitrate=   5.8kbits/s speed=0.0646x elapsed=0:00:10.31    \nframe=   85 fps=7.9 q=61.0 size=       0KiB time=00:00:00.70 bitrate=   5.4kbits/s speed=0.0654x elapsed=0:00:10.82    \nframe=   89 fps=7.8 q=61.0 size=       0KiB time=00:00:00.74 bitrate=   5.2kbits/s speed=0.0654x elapsed=0:00:11.34    \nframe=   93 fps=7.8 q=61.0 size=       0KiB time=00:00:00.77 bitrate=   5.0kbits/s speed=0.0653x elapsed=0:00:11.86    \nframe=   97 fps=7.8 q=61.0 size=       0KiB time=00:00:00.80 bitrate=   4.8kbits/s speed=0.0653x elapsed=0:00:12.37    \nframe=  101 fps=7.8 q=62.0 size=       0KiB time=00:00:00.84 bitrate=   4.6kbits/s speed=0.0653x elapsed=0:00:12.89    \nframe=  107 fps=8.0 q=62.0 size=       0KiB time=00:00:00.89 bitrate=   4.3kbits/s speed=0.0665x elapsed=0:00:13.40    \nframe=  111 fps=8.0 q=62.0 size=       0KiB time=00:00:00.92 bitrate=   4.2kbits/s speed=0.0664x elapsed=0:00:13.92    \nframe=  115 fps=8.0 q=63.0 size=       0KiB time=00:00:00.95 bitrate=   4.0kbits/s speed=0.0664x elapsed=0:00:14.43    \nframe=  120 fps=8.0 q=62.0 size=       0KiB time=00:00:01.00 bitrate=   3.8kbits/s speed=0.0668x elapsed=0:00:14.95    \nframe=  124 fps=8.0 q=63.0 size=       0KiB time=00:00:01.03 bitrate=   3.7kbits/s speed=0.0668x elapsed=0:00:15.46    \nframe=  128 fps=8.0 q=62.0 size=       0KiB time=00:00:01.06 bitrate=   3.6kbits/s speed=0.0667x elapsed=0:00:15.98    \nframe=  134 fps=8.1 q=62.0 size=     256KiB time=00:00:01.11 bitrate=1878.0kbits/s speed=0.0676x elapsed=0:00:16.50    \nframe=  138 fps=8.1 q=62.0 size=     256KiB time=00:00:01.15 bitrate=1823.6kbits/s speed=0.0676x elapsed=0:00:17.02    \nframe=  143 fps=8.2 q=51.0 size=     256KiB time=00:00:01.19 bitrate=1759.8kbits/s speed=0.068x elapsed=0:00:17.53    \nframe=  148 fps=8.2 q=63.0 size=     256KiB time=00:00:01.23 bitrate=1700.4kbits/s speed=0.0683x elapsed=0:00:18.05    \nframe=  152 fps=8.2 q=62.0 size=     256KiB time=00:00:01.26 bitrate=1655.6kbits/s speed=0.0682x elapsed=0:00:18.56    \nframe=  157 fps=8.2 q=51.0 size=     256KiB time=00:00:01.30 bitrate=1602.9kbits/s speed=0.0686x elapsed=0:00:19.07    \nframe=  162 fps=8.3 q=63.0 size=     256KiB time=00:00:01.35 bitrate=1553.4kbits/s speed=0.0689x elapsed=0:00:19.60    \nframe=  166 fps=8.3 q=62.0 size=     256KiB time=00:00:01.38 bitrate=1516.0kbits/s speed=0.0688x elapsed=0:00:20.11    \nframe=  170 fps=8.2 q=63.0 size=     256KiB time=00:00:01.41 bitrate=1480.3kbits/s speed=0.0687x elapsed=0:00:20.62    \nframe=  176 fps=8.3 q=63.0 size=     256KiB time=00:00:01.46 bitrate=1429.9kbits/s speed=0.0694x elapsed=0:00:21.14    \nframe=  180 fps=8.3 q=62.0 size=     256KiB time=00:00:01.50 bitrate=1398.1kbits/s speed=0.0693x elapsed=0:00:21.65    \nframe=  184 fps=8.3 q=63.0 size=     256KiB time=00:00:01.53 bitrate=1367.7kbits/s speed=0.0691x elapsed=0:00:22.17    \nframe=  189 fps=8.3 q=63.0 size=     256KiB time=00:00:01.57 bitrate=1331.5kbits/s speed=0.0694x elapsed=0:00:22.69    \nframe=  194 fps=8.4 q=63.0 size=     256KiB time=00:00:01.61 bitrate=1297.2kbits/s speed=0.0697x elapsed=0:00:23.20    \nframe=  198 fps=8.3 q=63.0 size=     256KiB time=00:00:01.65 bitrate=1271.0kbits/s speed=0.0696x elapsed=0:00:23.71    \nframe=  204 fps=8.4 q=63.0 size=     256KiB time=00:00:01.70 bitrate=1233.6kbits/s speed=0.0701x elapsed=0:00:24.24    \nframe=  208 fps=8.4 q=63.0 size=     256KiB time=00:00:01.73 bitrate=1209.9kbits/s speed=0.07x elapsed=0:00:24.75    \nframe=  212 fps=8.4 q=63.0 size=     256KiB time=00:00:01.76 bitrate=1187.1kbits/s speed=0.0699x elapsed=0:00:25.26    \nframe=  217 fps=8.4 q=63.0 size=     256KiB time=00:00:01.80 bitrate=1159.7kbits/s speed=0.0701x elapsed=0:00:25.78    \nframe=  222 fps=8.4 q=63.0 size=     256KiB time=00:00:01.85 bitrate=1133.6kbits/s speed=0.0704x elapsed=0:00:26.29    \nframe=  226 fps=8.4 q=63.0 size=     256KiB time=00:00:01.88 bitrate=1113.5kbits/s speed=0.0703x elapsed=0:00:26.80    \nframe=  231 fps=8.5 q=63.0 size=     256KiB time=00:00:01.92 bitrate=1089.4kbits/s speed=0.0704x elapsed=0:00:27.32    \nframe=  235 fps=8.4 q=63.0 size=     256KiB time=00:00:01.95 bitrate=1070.9kbits/s speed=0.0703x elapsed=0:00:27.84    \nframe=  240 fps=8.5 q=63.0 size=     256KiB time=00:00:02.00 bitrate=1048.6kbits/s speed=0.0705x elapsed=0:00:28.36    \nframe=  244 fps=8.4 q=63.0 size=     256KiB time=00:00:02.03 bitrate=1031.4kbits/s speed=0.0704x elapsed=0:00:28.88    \nframe=  248 fps=8.4 q=54.0 size=     256KiB time=00:00:02.06 bitrate=1014.8kbits/s speed=0.0703x elapsed=0:00:29.39    \nframe=  253 fps=8.5 q=63.0 size=     256KiB time=00:00:02.10 bitrate= 994.7kbits/s speed=0.0705x elapsed=0:00:29.90    \nframe=  256 fps=8.4 q=63.0 size=     256KiB time=00:00:02.13 bitrate= 983.0kbits/s speed=0.0701x elapsed=0:00:30.42    \nframe=  262 fps=8.5 q=63.0 size=     512KiB time=00:00:02.18 bitrate=1921.1kbits/s speed=0.0706x elapsed=0:00:30.93    \nframe=  266 fps=8.5 q=63.0 size=     512KiB time=00:00:02.21 bitrate=1892.2kbits/s speed=0.0705x elapsed=0:00:31.45    \nframe=  271 fps=8.5 q=63.0 size=     512KiB time=00:00:02.25 bitrate=1857.3kbits/s speed=0.0706x elapsed=0:00:31.97    \nframe=  275 fps=8.5 q=63.0 size=     512KiB time=00:00:02.29 bitrate=1830.2kbits/s speed=0.0705x elapsed=0:00:32.48    \nframe=  279 fps=8.5 q=50.0 size=     512KiB time=00:00:02.32 bitrate=1804.0kbits/s speed=0.0705x elapsed=0:00:32.99    \nframe=  284 fps=8.5 q=63.0 size=     512KiB time=00:00:02.36 bitrate=1772.2kbits/s speed=0.0706x elapsed=0:00:33.51    \nframe=  288 fps=8.5 q=63.0 size=     512KiB time=00:00:02.40 bitrate=1747.6kbits/s speed=0.0705x elapsed=0:00:34.03    \nframe=  293 fps=8.5 q=63.0 size=     512KiB time=00:00:02.44 bitrate=1717.8kbits/s speed=0.0707x elapsed=0:00:34.55    \nframe=  297 fps=8.5 q=63.0 size=     512KiB time=00:00:02.47 bitrate=1694.7kbits/s speed=0.0706x elapsed=0:00:35.06    \nframe=  302 fps=8.5 q=63.0 size=     512KiB time=00:00:02.51 bitrate=1666.6kbits/s speed=0.0707x elapsed=0:00:35.58    \nframe=  306 fps=8.5 q=63.0 size=     512KiB time=00:00:02.55 bitrate=1644.8kbits/s speed=0.0706x elapsed=0:00:36.09    \nframe=  310 fps=8.5 q=63.0 size=     512KiB time=00:00:02.58 bitrate=1623.6kbits/s speed=0.0706x elapsed=0:00:36.61    \nframe=  314 fps=8.5 q=63.0 size=     512KiB time=00:00:02.61 bitrate=1602.9kbits/s speed=0.0705x elapsed=0:00:37.13    \nframe=  319 fps=8.5 q=63.0 size=     512KiB time=00:00:02.65 bitrate=1577.8kbits/s speed=0.0706x elapsed=0:00:37.63    \nframe=  323 fps=8.5 q=63.0 size=     512KiB time=00:00:02.69 bitrate=1558.3kbits/s speed=0.0705x elapsed=0:00:38.16    \nframe=  327 fps=8.5 q=63.0 size=     512KiB time=00:00:02.72 bitrate=1539.2kbits/s speed=0.0705x elapsed=0:00:38.67    \nframe=  331 fps=8.4 q=56.0 size=     512KiB time=00:00:02.75 bitrate=1520.6kbits/s speed=0.0704x elapsed=0:00:39.19    \nframe=  336 fps=8.5 q=63.0 size=     512KiB time=00:00:02.80 bitrate=1498.0kbits/s speed=0.0705x elapsed=0:00:39.70    \nframe=  339 fps=8.4 q=63.0 size=     512KiB time=00:00:02.82 bitrate=1484.7kbits/s speed=0.0702x elapsed=0:00:40.22    \nframe=  344 fps=8.4 q=63.0 size=     512KiB time=00:00:02.86 bitrate=1463.1kbits/s speed=0.0704x elapsed=0:00:40.73    \nframe=  348 fps=8.4 q=63.0 size=     512KiB time=00:00:02.90 bitrate=1446.3kbits/s speed=0.0703x elapsed=0:00:41.25    \nframe=  352 fps=8.4 q=56.0 size=     512KiB time=00:00:02.93 bitrate=1429.9kbits/s speed=0.0702x elapsed=0:00:41.78    \nframe=  357 fps=8.4 q=63.0 size=     512KiB time=00:00:02.97 bitrate=1409.9kbits/s speed=0.0703x elapsed=0:00:42.29    \nframe=  360 fps=8.4 q=63.0 size=     512KiB time=00:00:03.00 bitrate=1398.1kbits/s speed=0.0701x elapsed=0:00:42.81    \nframe=  365 fps=8.4 q=63.0 size=     512KiB time=00:00:03.04 bitrate=1378.9kbits/s speed=0.0702x elapsed=0:00:43.33    \nframe=  368 fps=8.4 q=63.0 size=     512KiB time=00:00:03.06 bitrate=1367.7kbits/s speed=0.0699x elapsed=0:00:43.85    \nframe=  372 fps=8.4 q=63.0 size=     512KiB time=00:00:03.10 bitrate=1353.0kbits/s speed=0.0699x elapsed=0:00:44.36    \nframe=  377 fps=8.4 q=63.0 size=     512KiB time=00:00:03.14 bitrate=1335.1kbits/s speed=0.07x elapsed=0:00:44.87    \nframe=  380 fps=8.4 q=63.0 size=     512KiB time=00:00:03.16 bitrate=1324.5kbits/s speed=0.0698x elapsed=0:00:45.39    \nframe=  384 fps=8.4 q=63.0 size=     512KiB time=00:00:03.20 bitrate=1310.7kbits/s speed=0.0697x elapsed=0:00:45.91    \nframe=  388 fps=8.4 q=63.0 size=     768KiB time=00:00:03.23 bitrate=1945.8kbits/s speed=0.0696x elapsed=0:00:46.42    \nframe=  392 fps=8.4 q=56.0 size=     768KiB time=00:00:03.26 bitrate=1926.0kbits/s speed=0.0696x elapsed=0:00:46.93    \nframe=  397 fps=8.4 q=63.0 size=     768KiB time=00:00:03.30 bitrate=1901.7kbits/s speed=0.0697x elapsed=0:00:47.45    \nframe=  401 fps=8.4 q=63.0 size=     768KiB time=00:00:03.34 bitrate=1882.7kbits/s speed=0.0697x elapsed=0:00:47.96    \nframe=  405 fps=8.4 q=63.0 size=     768KiB time=00:00:03.37 bitrate=1864.1kbits/s speed=0.0696x elapsed=0:00:48.48    \nframe=  409 fps=8.3 q=63.0 size=     768KiB time=00:00:03.40 bitrate=1845.9kbits/s speed=0.0696x elapsed=0:00:49.00    \nframe=  413 fps=8.3 q=56.0 size=     768KiB time=00:00:03.44 bitrate=1828.0kbits/s speed=0.0695x elapsed=0:00:49.51    \nframe=  418 fps=8.4 q=63.0 size=     768KiB time=00:00:03.48 bitrate=1806.2kbits/s speed=0.0696x elapsed=0:00:50.03    \nframe=  421 fps=8.3 q=63.0 size=     768KiB time=00:00:03.50 bitrate=1793.3kbits/s speed=0.0694x elapsed=0:00:50.55    \nframe=  424 fps=8.3 q=63.0 size=     768KiB time=00:00:03.53 bitrate=1780.6kbits/s speed=0.0692x elapsed=0:00:51.06    \nframe=  428 fps=8.3 q=63.0 size=     768KiB time=00:00:03.56 bitrate=1764.0kbits/s speed=0.0691x elapsed=0:00:51.58    \nframe=  433 fps=8.3 q=63.0 size=     768KiB time=00:00:03.60 bitrate=1743.6kbits/s speed=0.0693x elapsed=0:00:52.09    \nframe=  436 fps=8.3 q=63.0 size=     768KiB time=00:00:03.63 bitrate=1731.6kbits/s speed=0.0691x elapsed=0:00:52.61    \nframe=  440 fps=8.3 q=63.0 size=     768KiB time=00:00:03.66 bitrate=1715.9kbits/s speed=0.069x elapsed=0:00:53.12    \nframe=  444 fps=8.3 q=63.0 size=     768KiB time=00:00:03.70 bitrate=1700.4kbits/s speed=0.069x elapsed=0:00:53.63    \nframe=  447 fps=8.3 q=63.0 size=     768KiB time=00:00:03.72 bitrate=1689.0kbits/s speed=0.0688x elapsed=0:00:54.16    \nframe=  450 fps=8.2 q=63.0 size=     768KiB time=00:00:03.75 bitrate=1677.7kbits/s speed=0.0686x elapsed=0:00:54.68    \nframe=  453 fps=8.2 q=63.0 size=     768KiB time=00:00:03.77 bitrate=1666.6kbits/s speed=0.0684x elapsed=0:00:55.20    \nframe=  454 fps=8.1 q=63.0 size=     768KiB time=00:00:03.78 bitrate=1662.9kbits/s speed=0.0679x elapsed=0:00:55.73    \nframe=  457 fps=8.1 q=63.0 size=     768KiB time=00:00:03.80 bitrate=1652.0kbits/s speed=0.0677x elapsed=0:00:56.26    \nframe=  460 fps=8.1 q=63.0 size=     768KiB time=00:00:03.83 bitrate=1641.2kbits/s speed=0.0675x elapsed=0:00:56.78    \nframe=  461 fps=8.0 q=63.0 size=     768KiB time=00:00:03.84 bitrate=1637.7kbits/s speed=0.067x elapsed=0:00:57.30    \nframe=  465 fps=8.0 q=63.0 size=     768KiB time=00:00:03.87 bitrate=1623.6kbits/s speed=0.067x elapsed=0:00:57.81    \nframe=  467 fps=8.0 q=63.0 size=     768KiB time=00:00:03.89 bitrate=1616.6kbits/s speed=0.0667x elapsed=0:00:58.33    \nframe=  469 fps=8.0 q=56.0 size=     768KiB time=00:00:03.90 bitrate=1609.8kbits/s speed=0.0664x elapsed=0:00:58.86    \nframe=  472 fps=7.9 q=63.0 size=     768KiB time=00:00:03.93 bitrate=1599.5kbits/s speed=0.0662x elapsed=0:00:59.39    \nframe=  474 fps=7.9 q=63.0 size=     768KiB time=00:00:03.95 bitrate=1592.8kbits/s speed=0.0659x elapsed=0:00:59.92    \nframe=  476 fps=7.9 q=56.0 size=     768KiB time=00:00:03.96 bitrate=1586.1kbits/s speed=0.0656x elapsed=0:01:00.45    \nframe=  479 fps=7.9 q=63.0 size=     768KiB time=00:00:03.99 bitrate=1576.1kbits/s speed=0.0655x elapsed=0:01:00.97    \nframe=  481 fps=7.8 q=63.0 size=     768KiB time=00:00:04.00 bitrate=1569.6kbits/s speed=0.0652x elapsed=0:01:01.49    \nframe=  483 fps=7.8 q=56.0 size=     768KiB time=00:00:04.02 bitrate=1563.1kbits/s speed=0.0649x elapsed=0:01:02.01    \nframe=  486 fps=7.8 q=63.0 size=     768KiB time=00:00:04.05 bitrate=1553.4kbits/s speed=0.0648x elapsed=0:01:02.53    \nframe=  489 fps=7.8 q=63.0 size=     768KiB time=00:00:04.07 bitrate=1543.9kbits/s speed=0.0646x elapsed=0:01:03.06    \nframe=  491 fps=7.7 q=63.0 size=     768KiB time=00:00:04.09 bitrate=1537.6kbits/s speed=0.0644x elapsed=0:01:03.58    \nframe=  494 fps=7.7 q=63.0 size=     768KiB time=00:00:04.11 bitrate=1528.3kbits/s speed=0.0642x elapsed=0:01:04.11    \nframe=  496 fps=7.7 q=63.0 size=     768KiB time=00:00:04.13 bitrate=1522.1kbits/s speed=0.0639x elapsed=0:01:04.63    \nframe=  499 fps=7.7 q=63.0 size=     768KiB time=00:00:04.15 bitrate=1513.0kbits/s speed=0.0638x elapsed=0:01:05.16    \nframe=  501 fps=7.6 q=63.0 size=     768KiB time=00:00:04.17 bitrate=1506.9kbits/s speed=0.0635x elapsed=0:01:05.69    \nframe=  503 fps=7.6 q=63.0 size=     768KiB time=00:00:04.19 bitrate=1500.9kbits/s speed=0.0633x elapsed=0:01:06.20    \nframe=  506 fps=7.6 q=62.0 size=     768KiB time=00:00:04.21 bitrate=1492.0kbits/s speed=0.0632x elapsed=0:01:06.72    \nframe=  508 fps=7.6 q=63.0 size=     768KiB time=00:00:04.23 bitrate=1486.2kbits/s speed=0.0629x elapsed=0:01:07.25    \nframe=  511 fps=7.5 q=63.0 size=     768KiB time=00:00:04.25 bitrate=1477.4kbits/s speed=0.0628x elapsed=0:01:07.76    \nframe=  512 fps=7.5 q=63.0 size=     768KiB time=00:00:04.26 bitrate=1474.6kbits/s speed=0.0625x elapsed=0:01:08.28    \nframe=  515 fps=7.5 q=63.0 size=    1024KiB time=00:00:04.29 bitrate=1954.6kbits/s speed=0.0624x elapsed=0:01:08.80    \nframe=  518 fps=7.5 q=63.0 size=    1024KiB time=00:00:04.31 bitrate=1943.3kbits/s speed=0.0623x elapsed=0:01:09.33    \nframe=  520 fps=7.4 q=56.0 size=    1024KiB time=00:00:04.33 bitrate=1935.8kbits/s speed=0.062x elapsed=0:01:09.84    \nframe=  523 fps=7.4 q=63.0 size=    1024KiB time=00:00:04.35 bitrate=1924.7kbits/s speed=0.0619x elapsed=0:01:10.36    \nframe=  525 fps=7.4 q=63.0 size=    1024KiB time=00:00:04.37 bitrate=1917.4kbits/s speed=0.0617x elapsed=0:01:10.87    \nframe=  527 fps=7.4 q=56.0 size=    1024KiB time=00:00:04.39 bitrate=1910.1kbits/s speed=0.0615x elapsed=0:01:11.39    \nframe=  529 fps=7.4 q=62.0 size=    1024KiB time=00:00:04.40 bitrate=1902.9kbits/s speed=0.0613x elapsed=0:01:11.91    \nframe=  533 fps=7.4 q=63.0 size=    1024KiB time=00:00:04.44 bitrate=1888.6kbits/s speed=0.0613x elapsed=0:01:12.43    \nframe=  536 fps=7.3 q=62.0 size=    1024KiB time=00:00:04.46 bitrate=1878.0kbits/s speed=0.0612x elapsed=0:01:12.96    \nframe=  540 fps=7.3 q=62.0 size=    1024KiB time=00:00:04.50 bitrate=1864.1kbits/s speed=0.0612x elapsed=0:01:13.48    \nframe=  543 fps=7.3 q=61.0 size=    1024KiB time=00:00:04.52 bitrate=1853.8kbits/s speed=0.0611x elapsed=0:01:14.00    \nframe=  547 fps=7.3 q=62.0 size=    1024KiB time=00:00:04.55 bitrate=1840.3kbits/s speed=0.0612x elapsed=0:01:14.51    \nframe=  551 fps=7.3 q=62.0 size=    1024KiB time=00:00:04.59 bitrate=1826.9kbits/s speed=0.0612x elapsed=0:01:15.03    \nframe=  554 fps=7.3 q=62.0 size=    1024KiB time=00:00:04.61 bitrate=1817.0kbits/s speed=0.0611x elapsed=0:01:15.54    \nframe=  558 fps=7.3 q=63.0 size=    1024KiB time=00:00:04.65 bitrate=1804.0kbits/s speed=0.0611x elapsed=0:01:16.06    \nframe=  561 fps=7.3 q=63.0 size=    1024KiB time=00:00:04.67 bitrate=1794.4kbits/s speed=0.061x elapsed=0:01:16.58    \nframe=  565 fps=7.3 q=62.0 size=    1024KiB time=00:00:04.70 bitrate=1781.7kbits/s speed=0.0611x elapsed=0:01:17.09    \nframe=  568 fps=7.3 q=62.0 size=    1024KiB time=00:00:04.73 bitrate=1772.2kbits/s speed=0.061x elapsed=0:01:17.61    \nframe=  572 fps=7.3 q=61.0 size=    1024KiB time=00:00:04.76 bitrate=1759.8kbits/s speed=0.061x elapsed=0:01:18.12    \nframe=  576 fps=7.3 q=61.0 size=    1024KiB time=00:00:04.80 bitrate=1747.6kbits/s speed=0.061x elapsed=0:01:18.64    \nframe=  576 fps=7.3 q=61.0 size=    1024KiB time=00:00:04.80 bitrate=1747.6kbits/s speed=0.0606x elapsed=0:01:19.16    \nframe=  576 fps=7.2 q=61.0 size=    1024KiB time=00:00:04.80 bitrate=1747.6kbits/s speed=0.0602x elapsed=0:01:19.66    \nframe=  576 fps=7.2 q=61.0 size=    1024KiB time=00:00:04.80 bitrate=1747.6kbits/s speed=0.0599x elapsed=0:01:20.19    \nframe=  576 fps=7.1 q=61.0 size=    1024KiB time=00:00:04.80 bitrate=1747.6kbits/s speed=0.0595x elapsed=0:01:20.70    \nframe=  576 fps=7.1 q=61.0 size=    1024KiB time=00:00:04.80 bitrate=1747.6kbits/s speed=0.0591x elapsed=0:01:21.22    \n[out#0/webm @ 0000022b73bb9080] video:1370KiB audio:0KiB subtitle:0KiB other streams:0KiB global headers:0KiB muxing overhead: 0.344819%\nframe=  600 fps=7.4 q=59.0 Lsize=    1375KiB time=00:00:05.00 bitrate=2252.2kbits/s speed=0.0613x elapsed=0:01:21.54    \n",
  "seconds": 81.69485449790955,
  "probe_out": {}
}